<svg width="32" height="19" viewBox="0 0 32 19" fill="none" xmlns="http://www.w3.org/2000/svg">
<path d="M8.5 7.6875C3.84731 7.6875 0 11.4723 0 16.125V18.0625C0 18.5807 0.481812 19 1 19H16C16.5182 19 16.9375 18.5807 16.9375 18.0625V16.125C16.9375 11.4723 13.1527 7.6875 8.5 7.6875ZM23.5 0.125C18.8473 0.125 15.0625 3.90981 15.0625 8.5625V10.5C15.0625 11.0182 15.4818 11.4375 16 11.4375H31C31.5182 11.4375 32 11.0182 32 10.5V8.5625C32 3.90981 28.1527 0.125 23.5 0.125Z" fill="url(#paint0_linear)"/>
<defs>
<linearGradient id="paint0_linear" x1="16" y1="19" x2="16" y2="0.125" gradientUnits="userSpaceOnUse">
<stop stop-color="#5558FF"/>
<stop offset="1" stop-color="#00C0FF"/>
</linearGradient>
</defs>
</svg>
